<svg xmlns="http://www.w3.org/2000/svg" xmlns:xlink="http://www.w3.org/1999/xlink" version="1.1" class="thumbnail-icon" viewBox="0.0000152587890625 -0.000030517578125 200 200"><g data-paper-data="{&quot;fillRule&quot;:&quot;evenodd&quot;,&quot;isIcon&quot;:true,&quot;iconStyle&quot;:&quot;standalone&quot;,&quot;selectedEffects&quot;:{&quot;container&quot;:&quot;&quot;,&quot;transformation&quot;:&quot;&quot;,&quot;pattern&quot;:&quot;&quot;},&quot;bounds&quot;:{&quot;x&quot;:210.40605963774544,&quot;y&quot;:115,&quot;width&quot;:129.1878807245091,&quot;height&quot;:129.18788072450914},&quot;iconType&quot;:&quot;icon&quot;,&quot;rawIconId&quot;:&quot;3592574&quot;,&quot;isDetailed&quot;:false}"><path d="M195.57673,129.50728c-14.22172,4.61926 -29.87122,10.94625 -47.34043,18.81299c-66.48712,29.93869 -101.62094,-4.04115 -102.1495,-4.58455c20.94513,22.75812 76.6229,46.63102 132.55263,18.0224c-5.54311,7.05487 -11.98208,13.32587 -19.20493,18.67301c-35.41433,8.1467 -57.83875,-0.44793 -57.83875,-0.44793c8.7626,4.78723 23.29227,9.91041 44.28891,8.87458c-13.7458,7.11086 -29.33931,11.14222 -45.88466,11.14222c-55.23516,0 -100,-44.76484 -100,-100c0,-55.23516 44.76484,-100 100,-100c55.23516,0 100,44.76484 100,100c0,10.27436 -1.53975,20.18477 -4.42329,29.50728zM95.80069,21.41657c-36.92609,0 -66.8813,29.9832 -66.8813,66.90929c0,36.95409 29.95521,66.90929 66.8813,66.96529c13.46585,0 26.00784,-3.97536 36.50616,-10.86226c-6.35498,2.29563 -13.24188,3.58343 -20.43673,3.58343c-32.95073,0 -59.65845,-26.70773 -59.65845,-59.65845c0,-32.95073 26.70773,-59.65845 59.65845,-59.65845c7.19485,0 14.08175,1.2598 20.43673,3.58343c-10.49832,-6.8869 -23.04031,-10.86226 -36.50616,-10.86226zM152.09968,112.98992c5.06719,-7.69877 7.97872,-16.90929 7.97872,-26.79171c0,-27.09966 -22.00448,-49.10414 -49.13214,-49.10414c-27.15566,0 -49.13214,21.97648 -49.13214,49.10414c0,9.88242 2.91153,19.09295 7.97872,26.79171c-1.67973,-4.67525 -2.63158,-9.74244 -2.63158,-15.0056c0,-24.18813 19.59686,-43.78499 43.78499,-43.78499c24.18813,0 43.78499,19.59686 43.78499,43.78499c0,5.29115 -0.92385,10.33035 -2.63158,15.0056z" fill-rule="evenodd" fill="#FE4365"/></g></svg>